<mxfile host="app.diagrams.net" modified="2023-09-08T06:58:00.089Z" agent="Mozilla/5.0 (Windows NT 10.0; Win64; x64) AppleWebKit/537.36 (KHTML, like Gecko) Chrome/116.0.0.0 Safari/537.36" etag="2x0mnqIUsC-PLTIfPnU_" version="21.7.2" type="gitlab">
  <diagram name="Page-1" id="wWqh5_wDpJMOBUiKOXKG">
    <mxGraphModel dx="724" dy="396" grid="1" gridSize="10" guides="1" tooltips="1" connect="1" arrows="1" fold="1" page="1" pageScale="1" pageWidth="850" pageHeight="1100" math="0" shadow="0">
      <root>
        <mxCell id="0" />
        <mxCell id="1" parent="0" />
        <mxCell id="VTu8ZWenEi4XEUO0DpCq-1" value="&lt;b&gt;&lt;font style=&quot;font-size: 20px;&quot;&gt;Orange Pi 5b&lt;/font&gt;&lt;/b&gt;" style="rounded=1;whiteSpace=wrap;html=1;" vertex="1" parent="1">
          <mxGeometry x="280" y="240" width="170" height="80" as="geometry" />
        </mxCell>
        <mxCell id="VTu8ZWenEi4XEUO0DpCq-2" value="&lt;b&gt;&lt;font style=&quot;font-size: 20px;&quot;&gt;Camera&lt;/font&gt;&lt;/b&gt;" style="rounded=1;whiteSpace=wrap;html=1;" vertex="1" parent="1">
          <mxGeometry x="60" y="250" width="120" height="60" as="geometry" />
        </mxCell>
        <mxCell id="VTu8ZWenEi4XEUO0DpCq-3" value="&lt;font style=&quot;font-size: 20px;&quot;&gt;&lt;b&gt;Laptop&lt;/b&gt;&lt;/font&gt;" style="rounded=1;whiteSpace=wrap;html=1;" vertex="1" parent="1">
          <mxGeometry x="573.75" y="245" width="120" height="60" as="geometry" />
        </mxCell>
        <mxCell id="VTu8ZWenEi4XEUO0DpCq-6" value="&lt;b&gt;USB&lt;/b&gt;" style="text;html=1;strokeColor=none;fillColor=none;align=center;verticalAlign=middle;whiteSpace=wrap;rounded=0;" vertex="1" parent="1">
          <mxGeometry x="200" y="250" width="60" height="30" as="geometry" />
        </mxCell>
        <mxCell id="VTu8ZWenEi4XEUO0DpCq-7" value="&lt;b&gt;&lt;font style=&quot;font-size: 14px;&quot;&gt;Ethernet&lt;/font&gt;&lt;/b&gt;" style="text;html=1;strokeColor=none;fillColor=none;align=center;verticalAlign=middle;whiteSpace=wrap;rounded=0;" vertex="1" parent="1">
          <mxGeometry x="480" y="250" width="60" height="30" as="geometry" />
        </mxCell>
        <mxCell id="VTu8ZWenEi4XEUO0DpCq-8" value="&lt;b&gt;&lt;font style=&quot;font-size: 14px;&quot;&gt;SSH&lt;/font&gt;&lt;/b&gt;" style="text;html=1;strokeColor=none;fillColor=none;align=center;verticalAlign=middle;whiteSpace=wrap;rounded=0;" vertex="1" parent="1">
          <mxGeometry x="480" y="280" width="60" height="30" as="geometry" />
        </mxCell>
        <mxCell id="VTu8ZWenEi4XEUO0DpCq-11" value="" style="rounded=0;whiteSpace=wrap;html=1;fillColor=none;dashed=1;" vertex="1" parent="1">
          <mxGeometry x="50" y="210" width="410" height="130" as="geometry" />
        </mxCell>
        <mxCell id="VTu8ZWenEi4XEUO0DpCq-13" value="" style="rounded=0;whiteSpace=wrap;html=1;fillColor=none;dashed=1;" vertex="1" parent="1">
          <mxGeometry x="563.75" y="210" width="140" height="130" as="geometry" />
        </mxCell>
        <mxCell id="VTu8ZWenEi4XEUO0DpCq-14" value="&lt;b&gt;&lt;font style=&quot;font-size: 14px;&quot;&gt;Khối cảm biến &amp;amp; xử lý&lt;/font&gt;&lt;/b&gt;" style="text;html=1;strokeColor=none;fillColor=none;align=center;verticalAlign=middle;whiteSpace=wrap;rounded=0;" vertex="1" parent="1">
          <mxGeometry x="201.25" y="180" width="107.5" height="30" as="geometry" />
        </mxCell>
        <mxCell id="VTu8ZWenEi4XEUO0DpCq-15" value="&lt;b&gt;&lt;font style=&quot;font-size: 14px;&quot;&gt;Khối điều khiển&amp;nbsp;&lt;br&gt;&amp;amp; giám sát&lt;br&gt;&lt;/font&gt;&lt;/b&gt;" style="text;html=1;strokeColor=none;fillColor=none;align=center;verticalAlign=middle;whiteSpace=wrap;rounded=0;" vertex="1" parent="1">
          <mxGeometry x="577.5" y="180" width="112.5" height="30" as="geometry" />
        </mxCell>
        <mxCell id="VTu8ZWenEi4XEUO0DpCq-16" value="" style="endArrow=classic;startArrow=classic;html=1;rounded=0;exitX=1;exitY=0.5;exitDx=0;exitDy=0;entryX=0;entryY=0.5;entryDx=0;entryDy=0;" edge="1" parent="1" source="VTu8ZWenEi4XEUO0DpCq-2" target="VTu8ZWenEi4XEUO0DpCq-1">
          <mxGeometry width="50" height="50" relative="1" as="geometry">
            <mxPoint x="370" y="340" as="sourcePoint" />
            <mxPoint x="420" y="290" as="targetPoint" />
          </mxGeometry>
        </mxCell>
        <mxCell id="VTu8ZWenEi4XEUO0DpCq-17" value="" style="endArrow=classic;startArrow=classic;html=1;rounded=0;exitX=1;exitY=0.5;exitDx=0;exitDy=0;entryX=0;entryY=0.5;entryDx=0;entryDy=0;" edge="1" parent="1">
          <mxGeometry width="50" height="50" relative="1" as="geometry">
            <mxPoint x="460" y="279.31" as="sourcePoint" />
            <mxPoint x="560" y="279.31" as="targetPoint" />
          </mxGeometry>
        </mxCell>
      </root>
    </mxGraphModel>
  </diagram>
</mxfile>
